# Blender v2.83.0 OBJ File: ''
# www.blender.org
mtllib base_sharnir.mtl
o Цилиндр
v -0.000000 0.011577 -0.979701
v -0.000000 0.988423 -0.979701
v 0.374916 0.988423 -0.905126
v 0.374916 0.011577 -0.905126
v 0.692754 0.988423 -0.692753
v 0.692754 0.011577 -0.692753
v 0.905126 0.988423 -0.374915
v 0.905126 0.011577 -0.374915
v 0.979702 0.988423 0.000000
v 0.979702 0.011577 -0.000000
v 0.905126 0.988423 0.374916
v 0.905126 0.011577 0.374916
v 0.692754 0.988423 0.692753
v 0.692754 0.011577 0.692753
v 0.374916 0.988423 0.905126
v 0.374916 0.011577 0.905126
v -0.000000 0.988423 0.979701
v -0.000000 0.011577 0.979701
v -0.374915 0.988423 0.905126
v -0.374915 0.011577 0.905126
v -0.692753 0.988423 0.692754
v -0.692753 0.011577 0.692754
v -0.905125 0.988423 0.374916
v -0.905125 0.011577 0.374916
v -0.979701 0.988423 0.000000
v -0.979701 0.011577 -0.000000
v -0.905125 0.988423 -0.374915
v -0.905125 0.011577 -0.374915
v -0.692753 0.988423 -0.692753
v -0.692753 0.011577 -0.692753
v -0.374915 0.988423 -0.905126
v -0.374915 0.011577 -0.905126
vt 1.000000 0.500000
vt 1.000000 1.000000
vt 0.937500 1.000000
vt 0.937500 0.500000
vt 0.875000 1.000000
vt 0.875000 0.500000
vt 0.812500 1.000000
vt 0.812500 0.500000
vt 0.750000 1.000000
vt 0.750000 0.500000
vt 0.687500 1.000000
vt 0.687500 0.500000
vt 0.625000 1.000000
vt 0.625000 0.500000
vt 0.562500 1.000000
vt 0.562500 0.500000
vt 0.500000 1.000000
vt 0.500000 0.500000
vt 0.437500 1.000000
vt 0.437500 0.500000
vt 0.375000 1.000000
vt 0.375000 0.500000
vt 0.312500 1.000000
vt 0.312500 0.500000
vt 0.250000 1.000000
vt 0.250000 0.500000
vt 0.187500 1.000000
vt 0.187500 0.500000
vt 0.125000 1.000000
vt 0.125000 0.500000
vt 0.341844 0.471731
vt 0.250000 0.490000
vt 0.158156 0.471731
vt 0.080294 0.419706
vt 0.028269 0.341844
vt 0.010000 0.250000
vt 0.028269 0.158156
vt 0.080294 0.080294
vt 0.158156 0.028269
vt 0.250000 0.010000
vt 0.341844 0.028269
vt 0.419706 0.080294
vt 0.471731 0.158156
vt 0.490000 0.250000
vt 0.471731 0.341844
vt 0.419706 0.419706
vt 0.062500 1.000000
vt 0.062500 0.500000
vt 0.000000 1.000000
vt 0.000000 0.500000
vt 0.750000 0.490000
vt 0.841844 0.471731
vt 0.919706 0.419706
vt 0.971731 0.341844
vt 0.990000 0.250000
vt 0.971731 0.158156
vt 0.919706 0.080294
vt 0.841844 0.028269
vt 0.750000 0.010000
vt 0.658156 0.028269
vt 0.580294 0.080294
vt 0.528269 0.158156
vt 0.510000 0.250000
vt 0.528269 0.341844
vt 0.580294 0.419706
vt 0.658156 0.471731
vn -0.0000 0.0000 -1.0000
vn 0.3827 0.0000 -0.9239
vn 0.7071 0.0000 -0.7071
vn 0.9239 0.0000 -0.3827
vn 1.0000 0.0000 -0.0000
vn 0.9239 -0.0000 0.3827
vn 0.7071 -0.0000 0.7071
vn 0.3827 -0.0000 0.9239
vn -0.0000 -0.0000 1.0000
vn -0.3827 -0.0000 0.9239
vn -0.7071 -0.0000 0.7071
vn -0.9239 -0.0000 0.3827
vn -1.0000 -0.0000 -0.0000
vn -0.9239 0.0000 -0.3827
vn -0.7071 0.0000 -0.7071
vn 0.0000 1.0000 0.0000
vn -0.3827 0.0000 -0.9239
vn -0.0000 -1.0000 -0.0000
usemtl Материал
s 1
f 1/1/1 2/2/1 3/3/2 4/4/2
f 4/4/2 3/3/2 5/5/3 6/6/3
f 6/6/3 5/5/3 7/7/4 8/8/4
f 8/8/4 7/7/4 9/9/5 10/10/5
f 10/10/5 9/9/5 11/11/6 12/12/6
f 12/12/6 11/11/6 13/13/7 14/14/7
f 14/14/7 13/13/7 15/15/8 16/16/8
f 16/16/8 15/15/8 17/17/9 18/18/9
f 18/18/9 17/17/9 19/19/10 20/20/10
f 20/20/10 19/19/10 21/21/11 22/22/11
f 22/22/11 21/21/11 23/23/12 24/24/12
f 24/24/12 23/23/12 25/25/13 26/26/13
f 26/26/13 25/25/13 27/27/14 28/28/14
f 28/28/14 27/27/14 29/29/15 30/30/15
f 3/31/16 2/32/16 31/33/16 29/34/16 27/35/16 25/36/16 23/37/16 21/38/16 19/39/16 17/40/16 15/41/16 13/42/16 11/43/16 9/44/16 7/45/16 5/46/16
f 30/30/15 29/29/15 31/47/17 32/48/17
f 32/48/17 31/47/17 2/49/1 1/50/1
f 1/51/18 4/52/18 6/53/18 8/54/18 10/55/18 12/56/18 14/57/18 16/58/18 18/59/18 20/60/18 22/61/18 24/62/18 26/63/18 28/64/18 30/65/18 32/66/18
